IKResults
version=1
nRows=5
nColumns=40
inDegrees=yes

Units are S.I. units (second, meters, Newtons, ...)
Angles are in degrees.

endheader
time	pelvis_tilt	pelvis_list	pelvis_rotation	pelvis_tx	pelvis_ty	pelvis_tz	hip_flexion_r	hip_adduction_r	hip_rotation_r	knee_angle_r	knee_angle_r_beta	ankle_angle_r	subtalar_angle_r	mtp_angle_r	hip_flexion_l	hip_adduction_l	hip_rotation_l	knee_angle_l	knee_angle_l_beta	ankle_angle_l	subtalar_angle_l	mtp_angle_l	lumbar_extension	lumbar_bending	lumbar_rotation	arm_flex_r	arm_add_r	arm_rot_r	elbow_flex_r	pro_sup_r	wrist_flex_r	wrist_dev_r	arm_flex_l	arm_add_l	arm_rot_l	elbow_flex_l	pro_sup_l	wrist_flex_l	wrist_dev_l
      0.79000000	     16.75084114	      2.87485272	     -8.81698576	      0.22590951	      0.92066081	      1.45531429	    -25.36115174	     -9.63593821	     -9.82405416	    -47.36195675	     -0.82662209	    -20.94061231	    -11.65695645	      1.75639699	      7.25171989	     -4.40929842	     18.87599610	    -26.43972057	     -0.46146018	      4.07522537	      7.65763306	     -6.62914159	    -20.65566111	     -8.29589582	      7.31436693	     -9.80541680	    -14.86398502	     -0.63605254	     56.64421602	     89.95437384	      0.00000000	      0.00000000	    -13.37357658	      7.44846953	     11.78655864	     11.94302904	     89.95437384	      0.00000000	      0.00000000
      0.80000000	     16.86693915	      3.50711044	     -8.34933119	      0.24145475	      0.92220084	      1.45406854	    -23.74737058	    -10.23960373	     -9.72417423	    -50.33598777	     -0.87852872	    -23.46648910	    -12.81124142	     15.57088719	      6.48152362	     -5.96064616	     16.13303113	    -26.72449703	     -0.46643046	      4.92409852	     10.59654088	     -5.54951846	    -20.82427435	     -8.88674077	      6.16043393	     -9.97517578	    -14.44093481	     -0.27035289	     55.19212756	     89.95437384	      0.00000000	      0.00000000	    -12.96459522	      7.74088654	     11.50405205	     12.24709125	     89.95437384	      0.00000000	      0.00000000
      0.81000000	     17.27264286	      3.64557461	     -8.15229578	      0.25722433	      0.92429060	      1.45350706	    -22.56606369	    -10.37408191	     -9.00368811	    -52.54650436	     -0.91710951	    -26.91001265	    -13.44346140	     16.10285571	      5.21831789	     -6.51757562	     15.38805158	    -27.12727460	     -0.47346026	      5.94464695	     10.64285858	     -5.55578778	    -21.27032457	     -9.05922471	      5.48460020	    -10.19242496	    -14.13297006	      0.03517039	     53.62795877	     89.95437384	      0.00000000	      0.00000000	    -12.30743376	      7.96416992	     11.21848590	     12.22974869	     89.95437384	      0.00000000	      0.00000000
      0.82000000	     17.23311529	      3.70768076	     -7.65796256	      0.27199163	      0.92592637	      1.45259513	    -20.80325999	    -10.05927879	     -8.21944232	    -54.76350323	     -0.95580344	    -28.22444300	    -14.86078838	     16.75232995	      4.39584268	     -7.05205167	     13.90031069	    -27.42385563	     -0.47863657	      6.84186115	     11.68976495	     -5.17668033	    -21.42110717	     -9.01221840	      4.62071157	    -10.31024930	    -13.77690546	      0.30404184	     51.94435102	     89.95437384	      0.00000000	      0.00000000	    -11.50440824	      8.23855557	     10.95429423	     12.41701361	     89.95437384	      0.00000000	      0.00000000
      0.83000000	     17.49135759	      3.52281514	     -7.34690578	      0.28694212	      0.92828999	      1.45230576	    -19.55667614	     -9.39994856	     -7.02453725	    -56.54556692	     -0.98690632	    -25.68108554	    -14.84221752	     16.06960410	      2.96547588	     -7.10673385	     13.38219601	    -27.40429546	     -0.47829519	      7.74619183	     11.29311687	     -5.01581005	    -21.85309281	     -8.79547115	      3.96894259	    -10.36959550	    -13.45981955	      0.63094172	     50.06990979	     89.95437384	      0.00000000	      0.00000000	    -10.72295272	      8.51525945	     10.23407332	     12.60506303	     89.95437384	      0.00000000	      0.00000000
